<svg width="512" height="512" viewBox="0 0 512 512" fill="none" xmlns="http://www.w3.org/2000/svg">
<rect width="512" height="512" rx="60" fill="#8624FF"/>
<path d="M258.105 373.622C226.951 372.415 205.355 384.768 190.307 409.671C182.109 423.395 169.66 434.073 154.849 440.089C140.037 446.104 123.669 447.129 108.222 443.007C92.7907 438.895 79.0812 429.95 69.101 417.482C59.1209 405.015 53.3944 389.679 52.7604 373.721C51.4375 341.741 71.8595 311.827 102.368 300.963C117.421 295.577 133.818 295.238 149.08 299.996C164.343 304.755 177.642 314.352 186.967 327.338C197.038 341.212 209.39 350.654 226.752 352.588C240.461 354.126 251.871 349.992 259.825 338.301C267.778 326.61 267.58 314.076 260.651 301.657C237.402 260.069 214.02 218.547 191.051 176.794C170.679 139.753 183.941 94.7917 220.651 74.9815C255.79 55.9981 300.024 67.9372 319.867 102.961C363.698 180.68 407.133 258.631 450.171 336.813C469.617 372.184 455.81 416.07 420.406 436.029C386.077 455.376 341.446 444.297 321.471 409.869C306.407 384.255 285.489 371.919 258.105 373.622Z" fill="white"/>
</svg>
