<svg width="26" height="24" viewBox="0 0 26 24" fill="none" xmlns="http://www.w3.org/2000/svg">
<path d="M13.1318 19.3514C11.1847 19.2759 9.83491 20.048 8.89443 21.6044C8.382 22.4622 7.60398 23.1296 6.67825 23.5055C5.75252 23.8815 4.7295 23.9455 3.76411 23.688C2.79963 23.4309 1.94279 22.8719 1.31903 22.0926C0.69527 21.3134 0.337361 20.3549 0.297739 19.3576C0.215058 17.3588 1.49143 15.4892 3.39824 14.8102C4.33904 14.4736 5.36383 14.4524 6.31774 14.7498C7.27165 15.0472 8.10284 15.647 8.68566 16.4586C9.31506 17.3257 10.0871 17.9159 11.1722 18.0368C12.029 18.1329 12.7421 17.8745 13.2392 17.1438C13.7364 16.4131 13.724 15.6298 13.2909 14.8536C11.8378 12.2543 10.3765 9.65921 8.94093 7.04962C7.66765 4.73457 8.49651 1.92448 10.7909 0.686343C12.9871 -0.500117 15.7517 0.246076 16.9919 2.43503C19.7314 7.29249 22.446 12.1644 25.1359 17.0508C26.3513 19.2615 25.4883 22.0044 23.2756 23.2518C21.13 24.461 18.3406 23.7686 17.0921 21.6168C16.1506 20.0159 14.8433 19.2449 13.1318 19.3514Z" fill="white"/>
</svg>
