<svg width="65" height="64" viewBox="0 0 65 64" fill="none" xmlns="http://www.w3.org/2000/svg">
<rect x="0.799805" width="64" height="64" rx="7.5" fill="#8624FF"/>
<path d="M33.0629 46.7028C29.1686 46.5519 26.4691 48.0959 24.5882 51.2089C23.5633 52.9244 22.0073 54.2591 20.1558 55.0111C18.3044 55.763 16.2583 55.8911 14.3275 55.3759C12.3986 54.8619 10.6849 53.7438 9.43737 52.1853C8.18986 50.6268 7.47404 48.7099 7.39479 46.7152C7.22943 42.7176 9.78218 38.9784 13.5958 37.6204C15.4774 36.9472 17.527 36.9047 19.4348 37.4995C21.3426 38.0943 23.005 39.294 24.1706 40.9172C25.4294 42.6515 26.9734 43.8317 29.1438 44.0736C30.8574 44.2658 32.2836 43.749 33.2778 42.2877C34.272 40.8263 34.2472 39.2595 33.3812 37.7072C30.475 32.5087 27.5522 27.3184 24.6812 22.0992C22.1346 17.4691 23.7923 11.849 28.3811 9.37269C32.7735 6.99977 38.3027 8.49215 40.7831 12.8701C46.2621 22.585 51.6914 32.3288 57.0711 42.1016C59.5019 46.523 57.776 52.0088 53.3505 54.5037C49.0594 56.9221 43.4805 55.5372 40.9836 51.2337C39.1006 48.0319 36.4858 46.4899 33.0629 46.7028Z" fill="white"/>
</svg>
