<svg width="129" height="128" viewBox="0 0 129 128" fill="none" xmlns="http://www.w3.org/2000/svg">
<rect x="0.600098" width="128" height="128" rx="15" fill="#8624FF"/>
<path d="M65.1263 93.4056C57.3378 93.1038 51.9388 96.1919 48.1768 102.418C46.1271 105.849 43.015 108.518 39.3121 110.022C35.6092 111.526 31.5171 111.782 27.6556 110.752C23.7976 109.724 20.3703 107.488 17.8752 104.371C15.3802 101.254 13.9486 97.4198 13.7901 93.4304C13.4594 85.4352 18.5649 77.9568 26.1921 75.2407C29.9553 73.8943 34.0544 73.8095 37.8701 74.9991C41.6857 76.1887 45.0105 78.588 47.3418 81.8345C49.8594 85.3029 52.9474 87.6634 57.2881 88.1471C60.7152 88.5316 63.5677 87.4981 65.5561 84.5753C67.5446 81.6526 67.495 78.519 65.7628 75.4144C59.9504 65.0173 54.105 54.6368 48.3628 44.1985C43.2697 34.9383 46.5852 23.6979 55.7627 18.7454C64.5474 13.9995 75.6059 16.9843 80.5667 25.7401C91.5246 45.17 102.383 64.6577 113.143 84.2033C118.004 93.0459 114.552 104.018 105.702 109.007C97.1193 113.844 85.9616 111.074 80.9677 102.467C77.2016 96.0637 71.9722 92.9798 65.1263 93.4056Z" fill="white"/>
</svg>
