<svg width="193" height="192" viewBox="0 0 193 192" fill="none" xmlns="http://www.w3.org/2000/svg">
<rect x="0.399902" width="192" height="192" rx="22.5" fill="#8624FF"/>
<path d="M97.1891 140.108C85.5064 139.656 77.4079 144.288 71.765 153.627C68.6904 158.773 64.0223 162.777 58.4679 165.033C52.9136 167.289 46.7754 167.673 40.9831 166.128C35.1962 164.586 30.0552 161.231 26.3126 156.556C22.5701 151.88 20.4226 146.13 20.1849 140.146C19.6888 128.153 27.347 116.935 38.7879 112.861C44.4326 110.841 50.5814 110.714 56.3049 112.499C62.0283 114.283 67.0155 117.882 70.5124 122.752C74.2888 127.954 78.9208 131.495 85.4319 132.221C90.5725 132.797 94.8512 131.247 97.8339 126.863C100.817 122.479 100.742 117.779 98.144 113.122C89.4254 97.526 80.6572 81.9553 72.044 66.2977C64.4044 52.4074 69.3775 35.5469 83.1438 28.1181C96.3209 20.9993 112.909 25.4765 120.35 38.6102C136.787 67.755 153.075 96.9865 169.214 126.305C176.506 139.569 171.328 156.026 158.052 163.511C145.179 170.766 128.442 166.611 120.951 153.701C115.302 144.096 107.458 139.47 97.1891 140.108Z" fill="white"/>
</svg>
