<svg width="257" height="256" viewBox="0 0 257 256" fill="none" xmlns="http://www.w3.org/2000/svg">
<rect x="0.200195" width="256" height="256" rx="30" fill="#8624FF"/>
<path d="M129.253 186.811C113.676 186.208 102.878 192.384 95.3537 204.835C91.2542 211.697 85.0301 217.037 77.6242 220.044C70.2184 223.052 62.0342 223.564 54.3111 221.504C46.5953 219.448 39.7405 214.975 34.7505 208.741C29.7604 202.507 26.8971 194.84 26.5802 186.861C25.9187 170.87 36.1297 155.914 51.3842 150.481C58.9105 147.789 67.1088 147.619 74.7401 149.998C82.3714 152.377 89.021 157.176 93.6835 163.669C98.7187 170.606 104.895 175.327 113.576 176.294C120.43 177.063 126.135 174.996 130.112 169.151C134.089 163.305 133.99 157.038 130.526 150.829C118.901 130.035 107.21 109.274 95.7257 88.3969C85.5395 69.8766 92.1703 47.3958 110.525 37.4907C128.095 27.9991 150.212 33.9686 160.133 51.4803C182.049 90.3399 203.767 129.315 225.285 168.407C235.009 186.092 228.105 208.035 210.403 218.015C193.239 227.688 170.923 222.149 160.935 204.935C153.403 192.127 142.944 185.96 129.253 186.811Z" fill="white"/>
</svg>
